<?xml version="1.0" standalone="no"?><svg xmlns="http://www.w3.org/2000/svg" viewBox="0 0 1440 320"><path fill="#000" fill-opacity="1" d="M0,64L34.3,69.3C68.6,75,137,85,206,90.7C274.3,96,343,96,411,80C480,64,549,32,617,37.3C685.7,43,754,85,823,117.3C891.4,149,960,171,1029,160C1097.1,149,1166,107,1234,96C1302.9,85,1371,107,1406,117.3L1440,128L1440,320L1405.7,320C1371.4,320,1303,320,1234,320C1165.7,320,1097,320,1029,320C960,320,891,320,823,320C754.3,320,686,320,617,320C548.6,320,480,320,411,320C342.9,320,274,320,206,320C137.1,320,69,320,34,320L0,320Z"></path></svg>